<svg width="28" height="28" viewBox="0 0 28 28" fill="none" xmlns="http://www.w3.org/2000/svg">
<path d="M19.5475 2.33333H8.45252C7.1005 2.33333 6.42449 2.33333 5.87929 2.52304C4.84542 2.88279 4.03373 3.71839 3.68427 4.7827C3.5 5.34397 3.5 6.03989 3.5 7.43174V23.7699C3.5 24.7711 4.64917 25.3024 5.37612 24.6372C5.8032 24.2464 6.4468 24.2464 6.87388 24.6372L7.4375 25.153C8.18602 25.8379 9.31398 25.8379 10.0625 25.153C10.811 24.468 11.939 24.468 12.6875 25.153C13.436 25.8379 14.564 25.8379 15.3125 25.153C16.061 24.468 17.189 24.468 17.9375 25.153C18.686 25.8379 19.814 25.8379 20.5625 25.153L21.1261 24.6372C21.5532 24.2464 22.1968 24.2464 22.6239 24.6372C23.3508 25.3024 24.5 24.7711 24.5 23.7699V7.43174C24.5 6.03989 24.5 5.34397 24.3157 4.7827C23.9662 3.71839 23.1546 2.88279 22.1207 2.52304C21.5755 2.33333 20.8995 2.33333 19.5475 2.33333Z" stroke="#1C274C" stroke-width="1.5"/>
<path d="M12.25 12.8333H19.8333" stroke="#1C274C" stroke-width="1.5" stroke-linecap="round"/>
<path d="M8.16699 12.8333H8.75033" stroke="#1C274C" stroke-width="1.5" stroke-linecap="round"/>
<path d="M8.16699 8.75H8.75033" stroke="#1C274C" stroke-width="1.5" stroke-linecap="round"/>
<path d="M8.16699 16.9167H8.75033" stroke="#1C274C" stroke-width="1.5" stroke-linecap="round"/>
<path d="M12.25 8.75H19.8333" stroke="#1C274C" stroke-width="1.5" stroke-linecap="round"/>
<path d="M12.25 16.9167H19.8333" stroke="#1C274C" stroke-width="1.5" stroke-linecap="round"/>
</svg>
