<svg width="28" height="28" viewBox="0 0 28 28" fill="none" xmlns="http://www.w3.org/2000/svg">
<path d="M2.33301 14C2.33301 9.60021 2.33301 7.40033 3.69984 6.03349C5.06668 4.66666 7.26656 4.66666 11.6663 4.66666H16.333C20.7327 4.66666 22.9327 4.66666 24.2995 6.03349C25.6663 7.40033 25.6663 9.60021 25.6663 14C25.6663 18.3997 25.6663 20.5997 24.2995 21.9665C22.9327 23.3333 20.7327 23.3333 16.333 23.3333H11.6663C7.26656 23.3333 5.06668 23.3333 3.69984 21.9665C2.33301 20.5997 2.33301 18.3997 2.33301 14Z" stroke="#C8C8C8" stroke-width="1.5"/>
<path d="M7 9.33334L9.51872 11.4323C11.6615 13.2179 12.7329 14.1107 14 14.1107C15.2671 14.1107 16.3386 13.2179 18.4813 11.4323L21 9.33334" stroke="#C8C8C8" stroke-width="1.5" stroke-linecap="round"/>
</svg>
