<svg width="28" height="28" viewBox="0 0 28 28" fill="none" xmlns="http://www.w3.org/2000/svg">
<path d="M16.333 2.33334C16.333 2.33334 18.8997 2.56668 22.1663 5.83334C25.433 9.10001 25.6663 11.6667 25.6663 11.6667" stroke="#C8C8C8" stroke-width="1.5" stroke-linecap="round"/>
<path d="M16.5752 6.45825C16.5752 6.45825 17.7302 6.78824 19.4626 8.52065C21.195 10.2531 21.525 11.408 21.525 11.408" stroke="#C8C8C8" stroke-width="1.5" stroke-linecap="round"/>
<path d="M11.7109 6.20219L12.468 7.55894C13.1513 8.78333 12.8771 10.3895 11.8008 11.4658C11.8008 11.4658 10.4955 12.7713 12.8622 15.1381C15.2282 17.5041 16.5346 16.1995 16.5346 16.1995C17.6108 15.1233 19.217 14.849 20.4414 15.5323L21.7981 16.2895C23.647 17.3213 23.8653 19.9141 22.2403 21.5392C21.2638 22.5157 20.0675 23.2756 18.745 23.3256C16.5189 23.4101 12.7383 22.8467 8.94598 19.0543C5.15365 15.262 4.59024 11.4814 4.67464 9.25526C4.72477 7.93286 5.48459 6.73659 6.46111 5.76009C8.08621 4.13498 10.679 4.35334 11.7109 6.20219Z" stroke="#C8C8C8" stroke-width="1.5" stroke-linecap="round"/>
</svg>
